<svg xmlns="http://www.w3.org/2000/svg" width="22" height="34" viewBox="0 0 22 34">
  <path id="mouse_FILL0_wght100_GRAD0_opsz48" d="M23.6,40.5a10.574,10.574,0,0,1-7.816-3.215A10.782,10.782,0,0,1,12.6,29.394V17.606a10.782,10.782,0,0,1,3.184-7.891A10.574,10.574,0,0,1,23.6,6.5a10.574,10.574,0,0,1,7.816,3.215A10.782,10.782,0,0,1,34.6,17.606V29.394a10.782,10.782,0,0,1-3.184,7.891A10.574,10.574,0,0,1,23.6,40.5Zm.531-22.894h9.408a9.79,9.79,0,0,0-2.75-6.99,9.534,9.534,0,0,0-6.658-3.093Zm-10.469,0h9.408V7.523a9.534,9.534,0,0,0-6.658,3.093,9.79,9.79,0,0,0-2.75,6.99ZM23.6,39.428a9.525,9.525,0,0,0,7.02-2.947,9.71,9.71,0,0,0,2.919-7.087V18.678H13.661V29.394a9.751,9.751,0,0,0,2.895,7.087A9.5,9.5,0,0,0,23.6,39.428ZM23.6,18.678ZM24.131,17.606ZM23.069,17.606ZM23.6,18.678Z" transform="translate(-12.6 -6.5)" fill="#fff"/>
</svg>
