<svg xmlns="http://www.w3.org/2000/svg" width="240" height="120" viewBox="0 0 240 120">
  <g id="_04" data-name="04" transform="translate(1683 7677)">
    <rect id="사각형_229" data-name="사각형 229" width="240" height="120" transform="translate(-1683 -7677)" fill="#fff"/>
    <g id="VOTT" transform="translate(-1658 -7655.596)">
      <path id="패스_258" data-name="패스 258" d="M93.175,40.592a19.76,19.76,0,1,0,19.78,19.736A19.79,19.79,0,0,0,93.175,40.592Zm.046,34.629a14.87,14.87,0,1,1,14.848-14.884A14.9,14.9,0,0,1,93.22,75.221Z" transform="translate(-19.242 -9.296)"/>
      <path id="패스_259" data-name="패스 259" d="M181.811,46.981a28.614,28.614,0,0,1-.341-5.079H152.849a28.675,28.675,0,0,1-.346,5.079s1.678-1.575,6.694-1.569l5.57.009-.015,32.3a1.991,1.991,0,0,1-.784,1.772h6.377a1.99,1.99,0,0,1-.786-1.772l-.012-32.3,5.562-.009C180.136,45.406,181.811,46.981,181.811,46.981Z" transform="translate(-40.243 -9.644)"/>
      <path id="패스_260" data-name="패스 260" d="M246.4,46.981a28.92,28.92,0,0,1-.344-5.079H217.437a29.1,29.1,0,0,1-.34,5.079s1.672-1.575,6.7-1.569l5.567.009-.015,32.3a1.994,1.994,0,0,1-.78,1.772h6.373a1.991,1.991,0,0,1-.784-1.772l-.015-32.3,5.565-.009C244.726,45.406,246.4,46.981,246.4,46.981Z" transform="translate(-57.401 -9.644)"/>
      <path id="패스_261" data-name="패스 261" d="M30.187,41.9s.918.066.3,1.928-11.1,24.826-11.1,24.826h0S8.9,45.695,8.289,43.831s.3-1.928.3-1.928H1c1.3,0,2.449,2.508,2.449,2.508L19.389,79.5h0L35.328,44.411S36.477,41.9,37.778,41.9Z" transform="translate(0 -9.644)"/>
      <path id="패스_262" data-name="패스 262" d="M51.5,17.533a2.726,2.726,0,0,0,.446.792,2.192,2.192,0,0,0,.233.2H50.251a.318.318,0,0,0,.088-.231,1.148,1.148,0,0,0-.037-.284,2.064,2.064,0,0,0-.106-.339l-1.106-2.653H43.927L42.8,17.675a2.336,2.336,0,0,0-.106.339.961.961,0,0,0-.028.284.346.346,0,0,0,.1.231H40.827a.858.858,0,0,0,.25-.2,3.419,3.419,0,0,0,.445-.792q.088-.214.347-.811l.624-1.443q.364-.846.809-1.861t.891-2.031q1.052-2.406,2.316-5.307,1.262,2.9,2.315,5.307.445,1.015.882,2.031t.8,1.861q.365.846.631,1.443C51.319,17.12,51.439,17.39,51.5,17.533Zm-2.973-3.687L46.51,9.072,44.5,13.846Z" transform="translate(-10.579 -0.129)"/>
      <path id="패스_263" data-name="패스 263" d="M67.941,18.233a1.551,1.551,0,0,0,.428.267.441.441,0,0,0,.177.036h-2.37a.128.128,0,0,0,.053-.16.377.377,0,0,0-.069-.125c-.227-.261-.458-.54-.7-.836-.2-.25-.433-.532-.695-.846s-.529-.639-.8-.971q-.981-1.158-2.191-2.636h-1.14V17.93a1.08,1.08,0,0,0,.035.294,1.519,1.519,0,0,0,.072.187.656.656,0,0,0,.126.125H59.035a.456.456,0,0,0,.107-.106,1.631,1.631,0,0,0,.073-.187,1.171,1.171,0,0,0,.035-.312V6.746a1.423,1.423,0,0,0-.035-.321c-.026-.083-.05-.158-.073-.223a.128.128,0,0,0-.126-.1h4.739a5.165,5.165,0,0,1,1.71.373,3.985,3.985,0,0,1,.641.365,2.644,2.644,0,0,1,.57.544,3.134,3.134,0,0,1,.428.766,3.254,3.254,0,0,1,.213,1.015,3.639,3.639,0,0,1,.011.435c-.007.126-.011.224-.011.294a3.227,3.227,0,0,1-.213,1.025,3.133,3.133,0,0,1-.428.756,2.626,2.626,0,0,1-.57.544,4.023,4.023,0,0,1-.641.366,5.183,5.183,0,0,1-1.71.373h-.213l3.988,4.827a.87.87,0,0,0,.126.16A1.531,1.531,0,0,0,67.941,18.233Zm-7.3-6.465h2.3a4.079,4.079,0,0,0,1.486-.168,2.619,2.619,0,0,0,.9-.5,1.685,1.685,0,0,0,.445-.606,2.691,2.691,0,0,0,.159-.507,2.1,2.1,0,0,1,.02-.268c0-.082,0-.178.008-.284a1.413,1.413,0,0,0-.029-.357,3.108,3.108,0,0,0-.159-.5,1.839,1.839,0,0,0-.445-.632,2.572,2.572,0,0,0-.89-.526,3.855,3.855,0,0,0-1.478-.178H60.637v4.523Z" transform="translate(-15.411 -0.135)"/>
      <path id="패스_264" data-name="패스 264" d="M81.25,6.657c.015.167.024.35.037.552a4.616,4.616,0,0,0,.071.588,1.921,1.921,0,0,0-.41-.267,3.994,3.994,0,0,0-.579-.179,3.783,3.783,0,0,0-.882-.088H77.671v10.7a.828.828,0,0,0,.035.267,1.063,1.063,0,0,0,.073.178.972.972,0,0,0,.106.125H76.123a.426.426,0,0,0,.105-.106.994.994,0,0,0,.072-.179.9.9,0,0,0,.037-.284V7.263H74.518a3.733,3.733,0,0,0-.888.088,3.977,3.977,0,0,0-.57.179,1.767,1.767,0,0,0-.41.267c.023-.19.043-.386.061-.588s.033-.386.045-.552a4.065,4.065,0,0,0,0-.552h8.5A4.441,4.441,0,0,0,81.25,6.657Z" transform="translate(-19.032 -0.136)"/>
      <path id="패스_265" data-name="패스 265" d="M89.055,17.948a.923.923,0,0,0,.035.275,1.313,1.313,0,0,0,.072.187.977.977,0,0,0,.107.125H87.434a.427.427,0,0,0,.106-.106c.024-.048.051-.107.082-.179a.819.819,0,0,0,.045-.3V6.746a1.424,1.424,0,0,0-.035-.321A1.576,1.576,0,0,0,87.55,6.2a.144.144,0,0,0-.134-.1h1.872a.126.126,0,0,0-.125.1c-.023.065-.048.14-.072.223a1.3,1.3,0,0,0-.035.321v11.2Z" transform="translate(-22.954 -0.135)"/>
      <path id="패스_266" data-name="패스 266" d="M99.051,8.854A1,1,0,0,0,99,8.533a1.841,1.841,0,0,0-.731-.98,2.167,2.167,0,0,0-1.283-.391h-.055a2.239,2.239,0,0,0-.8.142,2.016,2.016,0,0,0-.648.391,1.846,1.846,0,0,0-.437.579,1.583,1.583,0,0,0-.16.7,1.566,1.566,0,0,0,.221.828,2.16,2.16,0,0,0,.6.632c.083.059.161.113.231.16s.153.1.249.151.212.113.348.178.317.145.541.241l1.445.659a4,4,0,0,1,1.514,1.309,3.273,3.273,0,0,1,.588,1.915,3.317,3.317,0,0,1-.3,1.407,3.528,3.528,0,0,1-.837,1.149,4.062,4.062,0,0,1-1.237.775,3.986,3.986,0,0,1-1.506.285,4.059,4.059,0,0,1-1.406-.241,3.8,3.8,0,0,1-1.166-.668,3.729,3.729,0,0,1-.838-1.007,3.154,3.154,0,0,1-.4-1.255l1.478-.535a.883.883,0,0,0-.037.766,2.406,2.406,0,0,0,.892,1.176,2.457,2.457,0,0,0,1.478.462,2.575,2.575,0,0,0,.98-.187,2.527,2.527,0,0,0,.8-.508,2.494,2.494,0,0,0,.535-.739,2.106,2.106,0,0,0,.2-.9,2.137,2.137,0,0,0-.4-1.327,3.251,3.251,0,0,0-1.256-.917l-.508-.24a2.84,2.84,0,0,0-.268-.116l-.142-.054c-.031-.011-.073-.029-.132-.054l-.268-.107q-.178-.07-.5-.231L95.2,11.7a3.4,3.4,0,0,1-1.221-1.121,2.786,2.786,0,0,1-.471-1.569,2.756,2.756,0,0,1,.276-1.229,3.28,3.28,0,0,1,.737-1,3.513,3.513,0,0,1,1.1-.676,3.674,3.674,0,0,1,1.364-.249,3.515,3.515,0,0,1,1.923.542,3.4,3.4,0,0,1,1.265,1.381Z" transform="translate(-24.417 -0.07)"/>
      <path id="패스_267" data-name="패스 267" d="M113.6,6.657c.011.167.022.35.035.552a4.9,4.9,0,0,0,.072.588,1.873,1.873,0,0,0-.411-.267,3.9,3.9,0,0,0-.578-.179,3.765,3.765,0,0,0-.882-.088h-1.816v10.7a.848.848,0,0,0,.035.267,1.566,1.566,0,0,0,.069.178,1.394,1.394,0,0,0,.109.125h-1.763a.486.486,0,0,0,.107-.106,1.272,1.272,0,0,0,.072-.179.984.984,0,0,0,.035-.284V7.263h-1.817a3.749,3.749,0,0,0-.89.088,3.994,3.994,0,0,0-.569.179A1.788,1.788,0,0,0,105,7.8c.022-.19.045-.386.062-.588s.032-.386.043-.552a3.456,3.456,0,0,0,0-.552h8.5A4.446,4.446,0,0,0,113.6,6.657Z" transform="translate(-27.625 -0.136)"/>
      <path id="패스_268" data-name="패스 268" d="M135.994,17.533a2.647,2.647,0,0,0,.444.792,2.619,2.619,0,0,0,.229.2h-1.922a.316.316,0,0,0,.089-.231,1.147,1.147,0,0,0-.036-.284,2.225,2.225,0,0,0-.106-.339l-1.1-2.653h-5.166L127.3,17.675a2.168,2.168,0,0,0-.106.339.915.915,0,0,0-.028.284.35.35,0,0,0,.1.231h-1.941a.857.857,0,0,0,.249-.2,3.357,3.357,0,0,0,.446-.792q.088-.214.347-.811t.624-1.443c.242-.564.514-1.184.81-1.861s.595-1.354.891-2.031q1.05-2.406,2.318-5.307,1.262,2.9,2.313,5.307c.294.676.59,1.353.882,2.031s.558,1.3.8,1.861.453,1.046.632,1.443S135.933,17.39,135.994,17.533Zm-2.976-3.687-2.009-4.773-2.014,4.773Z" transform="translate(-33.023 -0.129)"/>
      <path id="패스_269" data-name="패스 269" d="M152.682,14.769a5.673,5.673,0,0,1-1.058,1.967,5,5,0,0,1-1.735,1.318,5.436,5.436,0,0,1-2.318.48,6.045,6.045,0,0,1-2.43-.49,6.318,6.318,0,0,1-1.978-1.336,6.229,6.229,0,0,1-1.326-1.977,6.084,6.084,0,0,1-.482-2.414,6.145,6.145,0,0,1,1.807-4.4,6.429,6.429,0,0,1,1.978-1.327,6.042,6.042,0,0,1,2.43-.489,5.858,5.858,0,0,1,1.978.329,6.428,6.428,0,0,1,1.691.9.658.658,0,0,0,.179.089,1.133,1.133,0,0,0,.214.062.582.582,0,0,0,.265-.008l-.587,1.8h-.017a5.069,5.069,0,0,0-.945-.944,5.473,5.473,0,0,0-1.166-.658,4.04,4.04,0,0,0-1.612-.3,4.745,4.745,0,0,0-1.913.391A4.961,4.961,0,0,0,143.04,10.4a4.981,4.981,0,0,0,0,3.829,4.854,4.854,0,0,0,1.05,1.568,4.923,4.923,0,0,0,1.568,1.051,4.816,4.816,0,0,0,1.913.383,4.118,4.118,0,0,0,1.747-.347,3.952,3.952,0,0,0,1.245-.882,3.834,3.834,0,0,0,.759-1.166,3.878,3.878,0,0,0,.292-1.2h-2.886a1.3,1.3,0,0,0-.32.036c-.083.024-.153.047-.214.071a.126.126,0,0,0-.089.125v-1.8a.141.141,0,0,0,.089.134,1.223,1.223,0,0,0,.214.08,1.3,1.3,0,0,0,.32.035h4.259A7.27,7.27,0,0,1,152.682,14.769Z" transform="translate(-37.282 -0.135)"/>
      <path id="패스_270" data-name="패스 270" d="M160.384,17.93V6.763a3.173,3.173,0,0,0-.017-.32,2.416,2.416,0,0,0-.08-.231.145.145,0,0,0-.134-.106H167.2c0,.213.009.415.018.605.012.167.03.335.051.507a1.427,1.427,0,0,0,.126.436,3.893,3.893,0,0,0-.373-.2,2.644,2.644,0,0,0-.383-.151,1.557,1.557,0,0,0-.455-.062h-4.435V11.2h4.63a.926.926,0,0,0,.253-.037,1.168,1.168,0,0,0,.211-.1.653.653,0,0,0,.2-.187v1.87a1.828,1.828,0,0,0-.143-.125c-.057-.024-.129-.051-.2-.08a.9.9,0,0,0-.313-.045h-4.63v4.79h4.63a1.54,1.54,0,0,0,.463-.071,2.309,2.309,0,0,0,.438-.223,2.112,2.112,0,0,0,.489-.455c-.083.368-.161.7-.231,1-.06.249-.123.477-.188.685s-.122.312-.17.312h-7.014a.879.879,0,0,1,.086-.142A1.555,1.555,0,0,0,160.384,17.93Z" transform="translate(-42.275 -0.135)"/>
      <path id="패스_271" data-name="패스 271" d="M182.947,5.97c-.035.046-.073.094-.107.142s-.047.123-.07.2a.843.843,0,0,0-.036.267V18.757l-7.748-9.4v8.461a.921.921,0,0,0,.036.275,1.144,1.144,0,0,0,.073.187.585.585,0,0,0,.123.125h-1.8a1.528,1.528,0,0,0,.106-.125,1.468,1.468,0,0,0,.07-.178.918.918,0,0,0,.035-.285V5.595l7.75,9.439V6.575a.816.816,0,0,0-.045-.294c-.029-.077-.057-.14-.079-.187-.037-.047-.073-.09-.107-.124h1.8Z" transform="translate(-45.799)"/>
      <path id="패스_272" data-name="패스 272" d="M198.968,17.164a4.89,4.89,0,0,1-1,.676,6.442,6.442,0,0,1-1.3.5,6.2,6.2,0,0,1-3.963-.294,6.383,6.383,0,0,1-1.968-1.328,6.207,6.207,0,0,1-1.337-1.968,6.22,6.22,0,0,1,0-4.835,6.288,6.288,0,0,1,3.3-3.322,5.939,5.939,0,0,1,2.4-.489,5.5,5.5,0,0,1,1.978.355,6.547,6.547,0,0,1,1.549.82c.07.059.148.124.229.2s.168.141.25.212.173.167.271.25l-.8,1.246a.54.54,0,0,0-.073-.231,1.877,1.877,0,0,0-.176-.276,2.475,2.475,0,0,0-.375-.383,4.4,4.4,0,0,0-1.069-.641,4.147,4.147,0,0,0-1.747-.285,4.786,4.786,0,0,0-1.931.391,4.954,4.954,0,0,0-1.566,1.069,5.135,5.135,0,0,0-1.061,1.576,4.988,4.988,0,0,0-.008,3.847,4.873,4.873,0,0,0,2.62,2.618,4.811,4.811,0,0,0,1.913.383,4.623,4.623,0,0,0,1.183-.142,5.4,5.4,0,0,0,.955-.338,4.409,4.409,0,0,0,.677-.392,3.667,3.667,0,0,0,.355-.285,1.661,1.661,0,0,0,.161-.187c.046-.066.087-.128.123-.188a.9.9,0,0,0,.09-.2l.98.89A4.1,4.1,0,0,1,198.968,17.164Z" transform="translate(-49.915 -0.135)"/>
      <path id="패스_273" data-name="패스 273" d="M213.9,6.1a.456.456,0,0,0-.292.132,2.184,2.184,0,0,0-.277.294c-.095.131-.191.267-.284.41l-3.421,6.109v4.9a.918.918,0,0,0,.037.275.944.944,0,0,0,.07.187,1.107,1.107,0,0,0,.106.125h-1.762a.87.87,0,0,0,.106-.125,1.429,1.429,0,0,0,.073-.178.965.965,0,0,0,.035-.285V13.086L204.855,6.94c-.095-.142-.189-.278-.283-.41a2.39,2.39,0,0,0-.277-.294A.458.458,0,0,0,204,6.1h2.173a.153.153,0,0,0-.087.088.312.312,0,0,0-.017.2,1.321,1.321,0,0,0,.123.356,6.6,6.6,0,0,0,.322.632q.264.49.658,1.194t.845,1.531c.3.552.611,1.1.917,1.647q.465-.818.928-1.647t.855-1.531q.391-.7.658-1.194c.178-.325.286-.537.322-.632a1.462,1.462,0,0,0,.125-.356.616.616,0,0,0,0-.2.157.157,0,0,0-.09-.088H213.9Z" transform="translate(-53.922 -0.135)"/>
    </g>
  </g>
</svg>
