<svg xmlns="http://www.w3.org/2000/svg" width="1920" height="1080" viewBox="0 0 1920 1080">
  <path id="빼기_1" data-name="빼기 1" d="M1921.026,1303.969H1.025v-1080h1920v1080Zm-1665.509-600h0l-24.067,24.2a69.3,69.3,0,0,0-16.089,22.52,68.663,68.663,0,0,0-4.4,13.486A69.167,69.167,0,0,0,238.7,835.188a68.763,68.763,0,0,0,39.834,12.634,69.548,69.548,0,0,0,14.253-1.472,68.721,68.721,0,0,0,25.176-10.882,69.621,69.621,0,0,0,10.327-8.811l0,0,23.3-23.35.055-.055.461-.463a67.031,67.031,0,0,0,102.744,29.2,67.649,67.649,0,0,0,10.245-9.517l21.45-21.29a67.288,67.288,0,0,0,15.649-21.876,66.659,66.659,0,0,0,4.276-13.1,67.142,67.142,0,0,0-80.253-79.621,66.76,66.76,0,0,0-25.59,11.817,67.682,67.682,0,0,0-10.245,9.513l.047-.067-19.78,19.633c-15.111,12.716-23.456,30.863-23.5,51.1l0,.005v.089l0,.05,0,.037a75.665,75.665,0,0,1-1.617,16.313,54.543,54.543,0,0,1-5.422,14.791,13.111,13.111,0,0,1-4.119,4.521,35.38,35.38,0,0,1-13.4,5.177,80.709,80.709,0,0,1-15.271,1.214c-.963,0-1.944-.009-3-.029a67.647,67.647,0,0,1-26.7-5.972,68.789,68.789,0,0,1-11.569-6.636,69.96,69.96,0,0,1-10.034-8.68A70.4,70.4,0,0,1,236.5,750.146a86.263,86.263,0,0,1,1.27-15.337,36.6,36.6,0,0,1,5.128-13.563,13.239,13.239,0,0,1,4.569-4.264c8.149-4.549,18.29-6.884,30.142-6.939h.337a69.336,69.336,0,0,1,27.19,5.485,9.263,9.263,0,0,0,3.633.741,8.937,8.937,0,0,0,6.37-2.624l18-18.017a4.525,4.525,0,0,0,1.239-4.082,4.4,4.4,0,0,0-2.654-3.26l-.149-.061-.028-.011-.121-.05a68.684,68.684,0,0,0-26.319-5.19,69.544,69.544,0,0,0-14.194,1.46,68.72,68.72,0,0,0-25.09,10.795,69.66,69.66,0,0,0-10.309,8.743Zm928.345,1.959-23.3,23.424a67.1,67.1,0,0,0-15.575,21.8,66.458,66.458,0,0,0-4.255,13.057,66.96,66.96,0,0,0,26.848,68.754,66.573,66.573,0,0,0,38.564,12.231,67.316,67.316,0,0,0,13.8-1.426,66.547,66.547,0,0,0,24.375-10.535,67.445,67.445,0,0,0,10-8.529l24.933-24.987-.009,0a67.021,67.021,0,0,0,14.292-21.233,66.881,66.881,0,0,0-99.688-81.025,67.457,67.457,0,0,0-9.981,8.465v0ZM695.57,685.486a4.323,4.323,0,0,0-3.066,1.291l-16.235,16.237a8.812,8.812,0,0,0-2.565,6.193V840.574a4.3,4.3,0,0,0,1.361,3.183,4.516,4.516,0,0,0,3.049,1.2,4.315,4.315,0,0,0,3.065-1.292l16.238-16.235a8.7,8.7,0,0,0,2.565-6.195V689.875a4.305,4.305,0,0,0-1.361-3.185A4.514,4.514,0,0,0,695.57,685.486ZM571.979,709.251a53.245,53.245,0,0,1,49.048,32.3,52.258,52.258,0,0,1,4.183,20.585v78.439a4.3,4.3,0,0,0,1.362,3.183,4.522,4.522,0,0,0,3.051,1.2,4.318,4.318,0,0,0,3.065-1.291l16.236-16.235a8.706,8.706,0,0,0,2.567-6.195V735.856a53.3,53.3,0,0,0-88.849-39.3l0-.009-.05.051a53.5,53.5,0,0,0-3.956,3.946L535.194,723.93c-.63.6-1.245,1.211-1.825,1.821l-.368.365.05-.037a52.507,52.507,0,0,0-14.306,36.057v78.439a4.3,4.3,0,0,0,1.361,3.183,4.515,4.515,0,0,0,3.05,1.2,4.264,4.264,0,0,0,3.066-1.291l16.235-16.235a8.7,8.7,0,0,0,2.566-6.195V735.856a78.629,78.629,0,0,1,.547-11.225,21.3,21.3,0,0,1,3.659-9.829,4.007,4.007,0,0,1,1.3-1.117,33.833,33.833,0,0,1,10.215-3.507A60.9,60.9,0,0,1,571.979,709.251Zm410.853-23.394a4.3,4.3,0,0,0-3.056,1.288l-16.191,16.191a8.685,8.685,0,0,0-2.56,6.177V810.445a34.386,34.386,0,0,0,2.663,13.3,34.846,34.846,0,0,0,7.259,10.977,34,34,0,0,0,10.76,7.461,32.7,32.7,0,0,0,13.166,2.752c.185,0,.38,0,.634-.006a33.725,33.725,0,0,0,24.117-10.808l11.169-11.3a33.989,33.989,0,0,0,11.929,15.716,33.505,33.505,0,0,0,19.109,6.393c.2,0,.416.006.63.006a32.665,32.665,0,0,0,13.615-2.954,34.091,34.091,0,0,0,10.983-7.972l-.015.025,25.271-25.234c.037-.039.077-.08.12-.12l.012-.012a34.887,34.887,0,0,0,7.365-11.028,34.375,34.375,0,0,0,2.705-13.4V690.234a4.292,4.292,0,0,0-1.358-3.176,4.5,4.5,0,0,0-3.041-1.2,4.3,4.3,0,0,0-3.056,1.289l-16.191,16.191a8.677,8.677,0,0,0-2.559,6.177V810.445a34.578,34.578,0,0,1-.848,7.567,33.06,33.06,0,0,1-6.816.719c-.2,0-.411,0-.613-.006a33.794,33.794,0,0,1-33.162-33.818l-.034.034c0-.108.01-.216.017-.32.009-.124.017-.252.017-.381V747.3a4.291,4.291,0,0,0-1.357-3.175,4.5,4.5,0,0,0-3.041-1.2,4.3,4.3,0,0,0-3.057,1.289L1031.227,760.4a8.688,8.688,0,0,0-2.559,6.176v44.534a34.028,34.028,0,0,1-.7,6.868,33.167,33.167,0,0,1-6.973.751c-.2,0-.4,0-.6-.005a33.794,33.794,0,0,1-33.162-33.818V690.234a4.293,4.293,0,0,0-1.357-3.176A4.5,4.5,0,0,0,982.831,685.857Zm491.547,0a4.3,4.3,0,0,0-3.056,1.288l-16.192,16.191a8.8,8.8,0,0,0-2.559,6.177V840.567a4.374,4.374,0,0,0,4.37,4.368h82.854a8.674,8.674,0,0,0,6.177-2.559l16.193-16.191a4.368,4.368,0,0,0-3.087-7.455h-75.934a4.371,4.371,0,0,1-4.365-4.368V690.234a4.292,4.292,0,0,0-1.358-3.176A4.5,4.5,0,0,0,1474.378,685.857Zm-129.978.052a4.336,4.336,0,0,0-3.086,1.278l-22.368,22.368a8.671,8.671,0,0,0-2.558,6.177V840.512a4.291,4.291,0,0,0,1.358,3.175,4.5,4.5,0,0,0,3.042,1.2,4.3,4.3,0,0,0,3.056-1.288l16.19-16.19a8.68,8.68,0,0,0,2.557-6.176V712.113h32.432c9.447,0,17.639,3.446,23.691,9.967a35.614,35.614,0,0,1,6.877,11,45.609,45.609,0,0,1,3.091,13.727,37.624,37.624,0,0,1-1.2,12.532l.043-.012-.034.018-.023.04.015-.046c-1.71,1.49-6.913,1.49-10.356,1.49H1371.7a4.348,4.348,0,0,0-3.084,1.273l-22.248,22.2a4.369,4.369,0,0,0,0,6.181l52.576,52.576a4.369,4.369,0,0,0,6.149.028l20.584-20.223a4.368,4.368,0,0,0,.029-6.2l-35.021-35.019a37.47,37.47,0,0,0,8.779-7.349l22.658-22.891a37.466,37.466,0,0,0,9.256-12.106,36.458,36.458,0,0,0,3.608-15.287,37.432,37.432,0,0,0-37.456-38.1Zm262.85.429a8.784,8.784,0,0,0-6.176,2.558l-21.088,21.088a8.672,8.672,0,0,0-2.558,6.177v123.93a4.372,4.372,0,0,0,4.367,4.368h40.7a66.36,66.36,0,0,0,13.732-1.433,65.61,65.61,0,0,0,24.213-10.578,66.509,66.509,0,0,0,9.9-8.556l-.02.028,24.921-24.89-.05.037a66.107,66.107,0,0,0,14.354-21.269,65.491,65.491,0,0,0,5.115-26.106c-.322-36.036-30.292-65.354-66.809-65.354ZM848.534,803.246v35.808a4.217,4.217,0,0,0,1.335,3.12,4.428,4.428,0,0,0,2.99,1.18,4.231,4.231,0,0,0,3-1.266l15.911-15.911a8.533,8.533,0,0,0,2.515-6.071V691.368a4.216,4.216,0,0,0-1.334-3.12,4.426,4.426,0,0,0-2.989-1.18,4.233,4.233,0,0,0-3,1.266l-15.912,15.91c-.086.087-.155.159-.218.227a64.985,64.985,0,0,0-80.758-5.357,65.621,65.621,0,0,0-9.712,8.236L737.69,730.138a65.274,65.274,0,0,0-15.153,21.212,64.665,64.665,0,0,0-4.14,12.7,65.052,65.052,0,0,0,63.644,78.8,64.765,64.765,0,0,0,37.141-11.637,65.589,65.589,0,0,0,9.728-8.3l19.625-19.665Zm-407.66,15.9a67.1,67.1,0,0,1-66.817-60.995c.184-2.043.277-4.126.277-6.191v-.425a69.081,69.081,0,0,1,1.919-16.826,61.626,61.626,0,0,1,6.031-15.164,66.979,66.979,0,0,1,69.818,3.17,67.285,67.285,0,0,1,24.307,29.517,67.038,67.038,0,0,1-3.094,58.56l-.009.007.012-.021a66.765,66.765,0,0,1-32.445,8.367ZM1234,819.007c-.922,0-1.9-.009-2.9-.028a65.492,65.492,0,0,1-25.844-5.781,66.6,66.6,0,0,1-11.2-6.424,68.141,68.141,0,0,1-28.606-56.14,83.571,83.571,0,0,1,1.227-14.836,35.461,35.461,0,0,1,4.952-13.122,12.83,12.83,0,0,1,4.438-4.149c7.891-4.405,17.709-6.666,29.183-6.719h.33A66.852,66.852,0,0,1,1261,740.934a66.41,66.41,0,0,1,11.571,37.225,73.4,73.4,0,0,1-1.549,15.895,52.8,52.8,0,0,1-5.275,14.406,12.646,12.646,0,0,1-3.979,4.36,34.248,34.248,0,0,1-12.977,5.011A78.185,78.185,0,0,1,1234,819.007Zm-424.534-.573h0c-.924,0-1.9-.009-2.9-.028a65.023,65.023,0,0,1-25.659-5.74,66.109,66.109,0,0,1-11.12-6.378,67.649,67.649,0,0,1-28.4-55.738,82.868,82.868,0,0,1,1.216-14.728,35.208,35.208,0,0,1,4.916-13.028,12.724,12.724,0,0,1,4.406-4.121c7.834-4.372,17.58-6.616,28.969-6.669h.328a66.373,66.373,0,0,1,55.02,28.918,65.926,65.926,0,0,1,11.488,36.957,72.828,72.828,0,0,1-1.538,15.78,52.455,52.455,0,0,1-5.238,14.3,12.562,12.562,0,0,1-3.946,4.328,34.012,34.012,0,0,1-12.875,4.975A77.429,77.429,0,0,1,809.466,818.434Zm839.235-.18H1608a4.373,4.373,0,0,1-4.368-4.368V712.543h22.28a68.871,68.871,0,0,1,25,4.5,58.359,58.359,0,0,1,19.773,12.614,57.041,57.041,0,0,1,13.021,19.391,65.915,65.915,0,0,1,4.747,24.833,96.507,96.507,0,0,1-1.513,16.536,65.973,65.973,0,0,1-4.422,15.447,13.12,13.12,0,0,1-6.5,6.477,65.618,65.618,0,0,1-13.125,4.379A66.286,66.286,0,0,1,1648.7,818.254Z" transform="translate(-1.025 -223.968)" fill="#fff"/>
</svg>
