<svg xmlns="http://www.w3.org/2000/svg" width="360" height="720.001" viewBox="0 0 360 720.001">
  <g id="그룹_159" data-name="그룹 159" transform="translate(20045 14925)">
    <path id="빼기_2" data-name="빼기 2" d="M360,720H0V0H360V720ZM52.109,344.973l-4.516,4.54a12.965,12.965,0,1,0,18.172,18.482l4.359-4.367a12.588,12.588,0,0,0,21.313,3.986l4.026-4a12.586,12.586,0,1,0-18.038-17.51l-2.191,2.172A12.383,12.383,0,0,0,69.3,358.972v.034a11.874,11.874,0,0,1-1.32,5.837,2.461,2.461,0,0,1-.773.849,9.764,9.764,0,0,1-5.385,1.2c-.179,0-.361,0-.558-.005a12.783,12.783,0,0,1-9.063-3.995,13.159,13.159,0,0,1-3.662-9.253,10.24,10.24,0,0,1,1.2-5.423,2.491,2.491,0,0,1,.858-.8,11.637,11.637,0,0,1,5.656-1.3h.059a13.024,13.024,0,0,1,5.106,1.03,1.738,1.738,0,0,0,.682.139,1.677,1.677,0,0,0,1.2-.493l3.378-3.38a.849.849,0,0,0,.233-.766.837.837,0,0,0-.5-.612l-.056-.023a12.949,12.949,0,0,0-14.245,2.966Zm94.735,1.563-4.254,4.277a12.212,12.212,0,1,0,17.117,17.41l3.684-3.691v6.618a.8.8,0,0,0,1.375.57l2.985-2.986a1.6,1.6,0,0,0,.472-1.139V343.436a.8.8,0,0,0-1.374-.569l-2.986,2.985c-.034.034-.064.068-.092.1a12.2,12.2,0,0,0-16.926.585Zm-12.158-4.525a.81.81,0,0,0-.575.242l-3.047,3.047a1.652,1.652,0,0,0-.481,1.162v24.651a.82.82,0,0,0,1.4.581l3.047-3.047a1.652,1.652,0,0,0,.481-1.162V342.835A.818.818,0,0,0,134.686,342.012Zm161.7.237a1.648,1.648,0,0,0-1.159.481l-3.957,3.957a1.624,1.624,0,0,0-.48,1.158V371.1a.82.82,0,0,0,.819.819h7.638a12.335,12.335,0,0,0,8.977-3.859l0,.006,4.677-4.67-.009.006a12.3,12.3,0,0,0-.081-17.578,12.552,12.552,0,0,0-8.8-3.576Zm-49.325-.167a.824.824,0,0,0-.579.239l-4.2,4.2a1.647,1.647,0,0,0-.48,1.159v23.415a.815.815,0,0,0,.825.821.8.8,0,0,0,.574-.242l3.037-3.037a1.628,1.628,0,0,0,.48-1.159V347h6.086a5.9,5.9,0,0,1,4.446,1.87,7.513,7.513,0,0,1,1.87,4.64,7.04,7.04,0,0,1-.225,2.352,4,4,0,0,1-1.945.28h-4.769a.816.816,0,0,0-.579.238l-4.175,4.166a.82.82,0,0,0,0,1.16l9.866,9.866a.82.82,0,0,0,1.154,0l3.863-3.794a.82.82,0,0,0,.005-1.165l-6.572-6.571a7.035,7.035,0,0,0,1.647-1.379l4.252-4.3a7.008,7.008,0,0,0-4.614-12.29ZM188.21,367.763h0a6.344,6.344,0,0,0,5.824,4.147h.118a6.317,6.317,0,0,0,4.616-2.05l0,0,4.742-4.735.023-.023a6.494,6.494,0,0,0,1.892-4.585V342.883a.819.819,0,0,0-1.4-.58l-3.038,3.038a1.629,1.629,0,0,0-.481,1.159v18.94a6.454,6.454,0,0,1-.159,1.42,6.234,6.234,0,0,1-1.281.135h-.113a6.347,6.347,0,0,1-6.223-6.346l-.006.006c0-.02,0-.04,0-.061s0-.048,0-.071v-6.933a.818.818,0,0,0-1.4-.579l-3.038,3.037a1.632,1.632,0,0,0-.481,1.159v8.357a6.347,6.347,0,0,1-.131,1.289,6.213,6.213,0,0,1-1.31.141h-.111a6.347,6.347,0,0,1-6.224-6.346V342.883a.818.818,0,0,0-1.4-.58l-3.038,3.038a1.631,1.631,0,0,0-.48,1.159v18.94A6.49,6.49,0,0,0,176.981,370a6.238,6.238,0,0,0,4.489,1.916h.119a6.289,6.289,0,0,0,4.525-2.028l2.1-2.119Zm83.24-25.7a.808.808,0,0,0-.574.242l-3.038,3.038a1.651,1.651,0,0,0-.481,1.159v24.592a.821.821,0,0,0,.821.82h15.548a1.627,1.627,0,0,0,1.158-.48l3.039-3.038a.82.82,0,0,0-.58-1.4H273.1a.82.82,0,0,1-.819-.819V342.883a.806.806,0,0,0-.255-.6A.845.845,0,0,0,271.45,342.062Zm-45.507-.1a12.513,12.513,0,0,0-9.009,3.814l-4.372,4.4a12.551,12.551,0,1,0,17.592,17.893l4.679-4.689a12.552,12.552,0,0,0-8.89-21.414Zm-114.448,4a9.968,9.968,0,0,1,9.989,9.924v14.719a.818.818,0,0,0,.828.823.8.8,0,0,0,.575-.242l3.046-3.046a1.637,1.637,0,0,0,.482-1.163V350.956a10,10,0,0,0-16.673-7.374l-.009.008a9.982,9.982,0,0,0-.742.74l-4.4,4.388c-.117.11-.232.225-.342.342l-.069.068,0,0a9.863,9.863,0,0,0-2.68,6.764v14.719a.821.821,0,0,0,1.4.581l3.046-3.046a1.637,1.637,0,0,0,.482-1.163V350.956c0-1.354,0-2.888.789-3.95a.739.739,0,0,1,.243-.21A8.284,8.284,0,0,1,111.495,345.964Zm44.563,21.418h0c-.172,0-.349,0-.543-.005a12.287,12.287,0,0,1-8.712-3.839,12.647,12.647,0,0,1-3.519-8.894,9.845,9.845,0,0,1,1.151-5.208,2.387,2.387,0,0,1,.827-.773,11.178,11.178,0,0,1,5.436-1.252h.06a12.427,12.427,0,0,1,12.481,12.362,11.423,11.423,0,0,1-1.272,5.646,2.357,2.357,0,0,1-.741.812A9.367,9.367,0,0,1,156.058,367.382Zm148.1-.379h-7.637a.821.821,0,0,1-.82-.82V347.166h4.181a11.9,11.9,0,0,1,8.4,3.212,10.7,10.7,0,0,1,2.443,3.639,12.366,12.366,0,0,1,.891,4.66,16.5,16.5,0,0,1-1.113,6,2.461,2.461,0,0,1-1.22,1.215A12.28,12.28,0,0,1,304.161,367Zm-77.819-.008c-.173,0-.351,0-.543-.005a12.375,12.375,0,0,1-8.774-3.867,12.739,12.739,0,0,1-3.545-8.958,9.913,9.913,0,0,1,1.159-5.246,2.4,2.4,0,0,1,.833-.778,11.255,11.255,0,0,1,5.476-1.261h.062a12.517,12.517,0,0,1,12.569,12.451,11.49,11.49,0,0,1-1.281,5.686,2.364,2.364,0,0,1-.746.818A9.445,9.445,0,0,1,226.342,366.995Zm-139.45-.005a12.589,12.589,0,0,1-12.556-11.671,13.02,13.02,0,0,0,.069-1.341v-.08a14.2,14.2,0,0,1,.108-1.8,12.5,12.5,0,0,1,1.359-3.785,12.591,12.591,0,0,1,17.107,17.11A12.616,12.616,0,0,1,86.892,366.989Z" transform="translate(-20045 -14925)" fill="#fff"/>
  </g>
</svg>
