<svg xmlns="http://www.w3.org/2000/svg" xmlns:xlink="http://www.w3.org/1999/xlink" width="226" height="30" viewBox="0 0 226 30">
  <defs>
    <clipPath id="clip-path">
      <rect id="사각형_1" data-name="사각형 1" width="225" height="24.641" fill="#fff"/>
    </clipPath>
  </defs>
  <g id="logo" transform="translate(-48 -45)">
    <g id="사각형_154" data-name="사각형 154" transform="translate(48 45)" fill="#fff" stroke="#707070" stroke-width="1" opacity="0">
      <rect width="226" height="30" stroke="none"/>
      <rect x="0.5" y="0.5" width="225" height="29" fill="none"/>
    </g>
    <g id="logo-2" data-name="logo" transform="translate(49 14)">
      <g id="그룹_5" data-name="그룹 5" transform="translate(0 34)" clip-path="url(#clip-path)">
        <path id="패스_3" data-name="패스 3" d="M615.651,11.233a9.942,9.942,0,0,0-9.986-9.769H599.6a1.3,1.3,0,0,0-.923.382L595.52,5a1.3,1.3,0,0,0-.382.923V24.447a.653.653,0,0,0,.653.653h6.084a9.829,9.829,0,0,0,7.151-3.074l0,0,3.725-3.72-.008.005a9.826,9.826,0,0,0,2.91-7.082m-4.8,8.1a1.96,1.96,0,0,1-.972.968,9.816,9.816,0,0,1-4.083.884h-6.084a.653.653,0,0,1-.653-.653V5.381h3.33c5.4,0,9.329,3.766,9.349,9.169a13.039,13.039,0,0,1-.887,4.781" transform="translate(-390.651 -0.961)" fill="#fff"/>
        <path id="패스_4" data-name="패스 4" d="M351.116,1.909A.653.653,0,0,0,350,1.447l-2.42,2.42a1.305,1.305,0,0,0-.382.923V19.878a5.148,5.148,0,0,1-.127,1.131,4.918,4.918,0,0,1-1.111.107A5.056,5.056,0,0,1,341,16.061l-.005.005c0-.035.005-.069.005-.1V10.439a.653.653,0,0,0-1.114-.461l-2.42,2.42a1.307,1.307,0,0,0-.382.923v6.657a5.077,5.077,0,0,1-.1,1.027,4.93,4.93,0,0,1-1.133.111,5.056,5.056,0,0,1-4.957-5.055V1.909a.653.653,0,0,0-1.114-.462l-2.42,2.42a1.307,1.307,0,0,0-.382.923V19.878a5.136,5.136,0,0,0,5.154,5.155,5.041,5.041,0,0,0,3.605-1.616l1.67-1.689a5.053,5.053,0,0,0,4.639,3.3,4.994,4.994,0,0,0,3.771-1.632l0,0,3.778-3.772.018-.018,0,0h0a5.2,5.2,0,0,0,1.506-3.651Z" transform="translate(-214.629 -0.824)" fill="#fff"/>
        <path id="패스_5" data-name="패스 5" d="M428.355,11.143a10,10,0,0,0-17.177-6.962h0l-3.483,3.5a10,10,0,1,0,14.014,14.253h0l3.727-3.735h0a9.964,9.964,0,0,0,2.92-7.058M418.239,21.08a10.083,10.083,0,0,1-9.813-10.216,7.788,7.788,0,0,1,.924-4.179,1.913,1.913,0,0,1,.663-.62,9.028,9.028,0,0,1,4.362-1,9.971,9.971,0,0,1,10.062,9.918,9.244,9.244,0,0,1-1.02,4.529,1.885,1.885,0,0,1-.595.652,8.024,8.024,0,0,1-4.583.92" transform="translate(-265.521 -0.75)" fill="#fff"/>
        <path id="패스_6" data-name="패스 6" d="M493.992,14.489l3.387-3.422A5.535,5.535,0,0,0,499.3,6.972a5.6,5.6,0,0,0-5.6-5.7h-7.941a.652.652,0,0,0-.461.191l-3.344,3.344a1.3,1.3,0,0,0-.382.923V24.387a.653.653,0,0,0,1.115.461l2.42-2.42a1.305,1.305,0,0,0,.382-.923V5.194h4.848c2.95,0,4.816,2.244,5.031,5.187a5.616,5.616,0,0,1-.179,1.873l.006,0-.005,0,0,.006,0-.007a3.234,3.234,0,0,1-1.581.223h-3.768a.654.654,0,0,0-.461.19l-3.326,3.318a.653.653,0,0,0,0,.924l7.859,7.859a.653.653,0,0,0,.919,0l3.077-3.023a.653.653,0,0,0,0-.927l-5.235-5.235a5.612,5.612,0,0,0,1.312-1.1" transform="translate(-316.107 -0.838)" fill="#fff"/>
        <path id="패스_7" data-name="패스 7" d="M556.74,21.116H545.39a.653.653,0,0,1-.653-.653V1.909a.653.653,0,0,0-1.115-.462l-2.42,2.42a1.306,1.306,0,0,0-.383.923v19.59a.653.653,0,0,0,.653.653h12.385a1.305,1.305,0,0,0,.923-.382l2.42-2.42a.653.653,0,0,0-.461-1.114" transform="translate(-354.997 -0.824)" fill="#fff"/>
        <path id="패스_8" data-name="패스 8" d="M84.054,10.9A10.026,10.026,0,0,0,66.478,4.3l.007-.01L63.217,7.533A10.026,10.026,0,1,0,77.646,21.423l3.206-3.182a10,10,0,0,0,3.2-7.342M65.247,6.049A10.029,10.029,0,0,1,78.875,19.677h0l0,0,0,0A10.029,10.029,0,0,1,65.248,6.047" transform="translate(-39.43 -0.571)" fill="#fff"/>
        <path id="패스_9" data-name="패스 9" d="M205.907,21.386V1.749a.655.655,0,0,0-1.118-.463l-2.427,2.427a1.308,1.308,0,0,0-.383.926V24.276a.655.655,0,0,0,1.117.463l2.427-2.427a1.309,1.309,0,0,0,.383-.926" transform="translate(-132.58 -0.718)" fill="#fff"/>
        <path id="패스_10" data-name="패스 10" d="M146.45,0a7.957,7.957,0,0,0-5.324,2.031h0l-.008.008a7.975,7.975,0,0,0-.591.59l-3.5,3.5q-.14.132-.273.272l-.055.055.008-.005a7.847,7.847,0,0,0-2.139,5.39V23.558a.655.655,0,0,0,1.118.463l2.427-2.427a1.309,1.309,0,0,0,.383-.926V7.9a5.3,5.3,0,0,1,.629-3.147.6.6,0,0,1,.194-.167,6.657,6.657,0,0,1,3.206-.663,7.931,7.931,0,0,1,7.957,7.905V23.558a.655.655,0,0,0,1.118.463l2.427-2.427a1.31,1.31,0,0,0,.384-.926V7.9A7.931,7.931,0,0,0,146.45,0" transform="translate(-88.329 0)" fill="#fff"/>
        <path id="패스_11" data-name="패스 11" d="M243.995,11.73a9.728,9.728,0,0,0-16.712-6.773h0l-3.389,3.407a9.728,9.728,0,1,0,13.635,13.868h0l3.627-3.635h0a9.694,9.694,0,0,0,2.841-6.868m-9.806,9.827a10.01,10.01,0,0,1-9.743-10.143,7.73,7.73,0,0,1,.917-4.149,1.9,1.9,0,0,1,.659-.616,8.967,8.967,0,0,1,4.33-1,9.9,9.9,0,0,1,9.99,9.847,9.177,9.177,0,0,1-1.013,4.5,1.872,1.872,0,0,1-.59.647,7.965,7.965,0,0,1-4.551.914" transform="translate(-144.93 -1.313)" fill="#fff"/>
        <path id="패스_12" data-name="패스 12" d="M20.586,14.29h0v.026a9.538,9.538,0,0,1-1.052,4.649,1.956,1.956,0,0,1-.616.676,8.287,8.287,0,0,1-4.734.951A10.415,10.415,0,0,1,4.047,10.041,8.037,8.037,0,0,1,5,5.721a1.971,1.971,0,0,1,.683-.637,9.326,9.326,0,0,1,4.506-1.037,10.4,10.4,0,0,1,4.115.82,1.359,1.359,0,0,0,1.5-.281l2.691-2.693a.674.674,0,0,0-.212-1.1L18.237.776A10.336,10.336,0,0,0,6.889,3.139h0l-3.6,3.617A10.327,10.327,0,1,0,17.767,21.477h0l3.483-3.49.008-.008h0l.359-.359h0a10.35,10.35,0,0,0,3.035-7.309v-.064a9.407,9.407,0,0,1,1.189-4.783l-.042.022a9.874,9.874,0,0,0-5.211,8.8" transform="translate(0 0)" fill="#fff"/>
        <path id="패스_13" data-name="패스 13" d="M281.888,21.668V2.424a.642.642,0,0,0-1.1-.454l-2.379,2.378a1.285,1.285,0,0,0-.376.907V24.5a.642.642,0,0,0,1.1.454l2.378-2.378a1.283,1.283,0,0,0,.376-.907" transform="translate(-182.505 -1.169)" fill="#fff"/>
      </g>
    </g>
  </g>
</svg>
